<?xml version="1.0" encoding="UTF-8"?>
<svg id="Layer_1" data-name="Layer 1" xmlns="http://www.w3.org/2000/svg" viewBox="0 0 200 200">
  <defs>
    <style>
      .cls-1 {
        fill: #fff;
      }
    </style>
  </defs>
  <circle cx="100" cy="100" r="95"/>
  <g>
    <path class="cls-1" d="M89.31,94.68s11.91-.89,11.91-14.85-9.74-20.79-22.08-20.79h-40.62v78.06h40.62s24.79.78,24.79-23.04c0,0,1.08-19.37-14.61-19.37ZM56.41,72.91h22.72s5.52,0,5.52,8.12-3.25,9.29-6.92,9.3h-21.31v-17.42ZM78.08,123.22h-21.67v-20.86h22.72s8.23-.1,8.23,10.72c0,9.03-6.02,10.05-9.27,10.14Z"/>
    <rect class="cls-1" x="120.2" y="63.64" width="32.21" height="9.61"/>
    <path class="cls-1" d="M136.99,78.9c-30.02,0-29.98,29.99-29.98,29.99,0,0-2.06,29.83,29.99,29.83,0,0,26.71,1.53,26.71-20.76h-13.73s.45,8.4-12.52,8.4c0,0-13.74.92-13.74-13.58h40.45s4.43-33.88-27.17-33.88ZM123.56,102.36s1.67-12.04,13.74-12.04,11.91,12.04,11.91,12.04h-25.64Z"/>
  </g>
</svg>