<?xml version="1.0" encoding="UTF-8"?>
<svg id="Layer_1" data-name="Layer 1" xmlns="http://www.w3.org/2000/svg" viewBox="0 0 200 200">
  <defs>
    <style>
      .cls-1 {
        fill: #fff;
      }
    </style>
  </defs>
  <circle cx="100" cy="100" r="94.85" transform="translate(-31.66 48.36) rotate(-23.58)"/>
  <g>
    <path class="cls-1" d="M125.57,43.02h-51.13c-17.35,0-31.42,14.07-31.42,31.42v51.13c0,17.35,14.07,31.42,31.42,31.42h51.13c17.35,0,31.41-14.07,31.41-31.42v-51.13c0-17.35-14.07-31.42-31.41-31.42ZM147.77,125.44c0,12.34-10,22.34-22.34,22.34h-50.87c-12.34,0-22.34-10-22.34-22.34v-50.87c0-12.34,10-22.34,22.34-22.34h50.87c12.34,0,22.34,10,22.34,22.34v50.87Z"/>
    <path class="cls-1" d="M100,69.97c-16.59,0-30.03,13.45-30.03,30.03s13.45,30.03,30.03,30.03,30.03-13.45,30.03-30.03-13.45-30.03-30.03-30.03ZM100,119.59c-10.82,0-19.59-8.77-19.59-19.59s8.77-19.59,19.59-19.59,19.59,8.77,19.59,19.59-8.77,19.59-19.59,19.59Z"/>
    <path class="cls-1" d="M137.79,68.97c0,3.72-3.02,6.74-6.74,6.74s-6.74-3.02-6.74-6.74,3.02-6.74,6.74-6.74,6.74,3.02,6.74,6.74Z"/>
  </g>
</svg>