<?xml version="1.0" encoding="UTF-8"?>
<svg id="Layer_1" data-name="Layer 1" xmlns="http://www.w3.org/2000/svg" viewBox="0 0 200 200">
  <defs>
    <style>
      .cls-1 {
        fill: #fff;
      }
    </style>
  </defs>
  <circle cx="100" cy="100" r="95"/>
  <path class="cls-1" d="M157.33,111.74v40.2h-23.31v-37.51c0-9.42-3.37-15.85-11.8-15.85-6.44,0-10.27,4.33-11.96,8.52-.61,1.5-.77,3.58-.77,5.68v39.15h-23.31s.31-63.53,0-70.1h23.31v9.93c-.05.08-.11.15-.15.23h.15v-.23c3.1-4.77,8.62-11.58,21.01-11.58,15.34,0,26.83,10.02,26.83,31.55h0ZM49.99,151.95h23.3v-70.1h-23.3v70.1ZM49.99,151.95,73.99,58.06c0,6.63-5.37,12-12,12s-12-5.37-12-12,5.37-12,12-12,12,5.37,12,12Z"/>
</svg>