<svg width="276" height="263" viewBox="0 0 276 263" fill="none" xmlns="http://www.w3.org/2000/svg">
<path d="M259.71 109.53H262.05C263.17 109.53 263.93 109.36 264.34 109.03C264.75 108.7 264.95 108.26 264.95 107.71C264.95 107.36 264.85 107.04 264.65 106.76C264.45 106.48 264.18 106.27 263.84 106.14C263.49 106 262.84 105.93 261.9 105.93H259.7V109.52L259.71 109.53ZM257.78 116.26V104.32H261.89C263.3 104.32 264.31 104.43 264.94 104.65C265.57 104.87 266.07 105.25 266.45 105.81C266.82 106.36 267.01 106.94 267.01 107.56C267.01 108.43 266.7 109.19 266.07 109.84C265.45 110.49 264.62 110.85 263.58 110.93C264 111.11 264.34 111.32 264.6 111.56C265.08 112.03 265.67 112.82 266.37 113.93L267.83 116.27H265.49L264.42 114.39C263.59 112.91 262.91 111.98 262.39 111.61C262.04 111.34 261.53 111.2 260.85 111.21H259.71V116.28H257.78V116.26ZM262.66 100.84C261.1 100.84 259.57 101.24 258.1 102.04C256.62 102.84 255.47 103.99 254.63 105.47C253.8 106.96 253.38 108.51 253.38 110.12C253.38 111.73 253.79 113.26 254.61 114.72C255.43 116.19 256.58 117.33 258.05 118.15C259.52 118.97 261.06 119.38 262.67 119.38C264.28 119.38 265.81 118.97 267.28 118.15C268.75 117.33 269.9 116.18 270.71 114.72C271.52 113.25 271.93 111.72 271.93 110.12C271.93 108.52 271.51 106.96 270.68 105.47C269.85 103.98 268.69 102.84 267.21 102.04C265.73 101.24 264.21 100.84 262.66 100.84ZM262.66 99C264.52 99 266.34 99.48 268.12 100.44C269.89 101.4 271.28 102.77 272.27 104.55C273.26 106.33 273.76 108.19 273.76 110.13C273.76 112.07 273.27 113.89 272.29 115.65C271.31 117.42 269.95 118.79 268.18 119.77C266.42 120.75 264.57 121.24 262.65 121.24C260.73 121.24 258.88 120.75 257.11 119.77C255.35 118.79 253.97 117.42 252.99 115.65C252.01 113.89 251.52 112.04 251.52 110.13C251.52 108.22 252.02 106.34 253.01 104.55C254.01 102.77 255.4 101.4 257.17 100.44C258.95 99.48 260.77 99 262.64 99H262.66Z" fill="#11468F"/>
<path d="M222.739 256.69H224.899ZM224.899 256.69H222.739V243.23H224.899V256.69ZM217.089 256.69H214.929V243.23H217.089V256.69ZM197.429 245.19V243.23H203.889V245.19H201.739V256.69H199.579V245.19H197.429ZM185.799 245.19V243.23H197.969V245.19H195.819V256.69H193.669V253.27C193.419 253.58 193.069 253.82 192.619 254C192.169 254.16 191.669 254.24 191.109 254.24C189.929 254.24 188.919 253.86 188.089 253.11C187.249 252.34 186.819 251.41 186.819 250.33C186.819 249.25 187.239 248.33 188.089 247.56C188.929 246.8 189.949 246.43 191.129 246.43C191.649 246.43 192.099 246.46 192.479 246.51C192.859 246.58 193.139 246.67 193.339 246.78L192.809 248.77C192.659 248.66 192.449 248.58 192.159 248.53C191.869 248.48 191.519 248.45 191.109 248.45C190.519 248.45 190.009 248.64 189.599 249.01C189.189 249.37 188.979 249.81 188.979 250.33C188.979 250.85 189.189 251.29 189.599 251.65C190.009 252.03 190.509 252.22 191.109 252.22C191.649 252.22 192.149 252.09 192.619 251.84C193.069 251.59 193.419 251.25 193.669 250.82V245.19H185.809H185.799ZM174.729 260.14L175.669 258.76C176.439 259.41 177.379 259.91 178.499 260.27C179.609 260.61 180.819 260.78 182.109 260.78C182.759 260.78 183.309 260.63 183.779 260.32C184.239 260 184.479 259.62 184.479 259.19C184.479 258.89 184.339 258.62 184.049 258.41C183.759 258.2 183.419 258.09 183.019 258.09C182.749 258.09 182.489 258.15 182.209 258.28C181.959 258.41 181.729 258.59 181.539 258.82L180.329 257.47C180.789 257.07 181.259 256.78 181.729 256.58C182.179 256.36 182.599 256.26 182.989 256.26C183.909 256.26 184.689 256.54 185.329 257.12C185.979 257.69 186.299 258.39 186.299 259.2C186.299 260.15 185.889 260.96 185.059 261.63C184.249 262.29 183.269 262.62 182.099 262.62C180.659 262.62 179.319 262.41 178.059 261.97C176.779 261.56 175.669 260.95 174.719 260.14H174.729ZM175.219 256.4L182.869 250.34V252.5L176.349 257.75L175.219 256.41V256.4ZM172.869 245.27C172.869 244.41 173.169 243.67 173.779 243.06C174.409 242.45 175.159 242.15 176.019 242.15C176.879 242.15 177.549 242.39 178.149 242.9C178.739 243.4 179.039 244.01 179.039 244.73C179.039 245.32 178.789 245.84 178.279 246.26C177.759 246.68 177.139 246.88 176.419 246.88L175.879 245.4C176.149 245.4 176.379 245.34 176.579 245.21C176.779 245.06 176.869 244.9 176.869 244.72C176.829 244.56 176.739 244.42 176.579 244.31C176.419 244.2 176.229 244.15 176.009 244.15C175.739 244.15 175.509 244.26 175.309 244.47C175.109 244.69 175.009 244.95 175.009 245.25C175.009 245.77 175.159 246.27 175.469 246.76C175.779 247.25 176.199 247.64 176.729 247.95C177.379 247.66 177.969 247.52 178.509 247.52L178.829 249.41C178.129 249.41 177.529 249.58 177.019 249.92C176.519 250.24 176.269 250.64 176.269 251.13C176.269 251.51 176.449 251.83 176.809 252.1C177.149 252.37 177.569 252.5 178.069 252.5C178.819 252.5 179.519 252.31 180.169 251.93C180.839 251.54 181.349 251.01 181.729 250.34V245.17H179.569V243.21H186.039V245.17H183.889V256.67H181.729V253.03C181.339 253.5 180.819 253.87 180.189 254.14C179.539 254.39 178.839 254.51 178.089 254.51C176.989 254.51 176.049 254.18 175.259 253.52C174.489 252.86 174.099 252.06 174.099 251.12C174.099 250.65 174.189 250.22 174.369 249.83C174.549 249.43 174.799 249.13 175.119 248.91C174.419 248.5 173.859 247.97 173.449 247.32C173.039 246.66 172.829 245.97 172.829 245.24L172.869 245.27ZM163.099 240.24H160.409V237.55H163.099V240.24ZM152.789 245.19V243.23H164.959V245.19H162.809V256.69H160.659V253.27C160.409 253.58 160.059 253.82 159.609 254C159.159 254.16 158.659 254.24 158.099 254.24C156.919 254.24 155.909 253.86 155.089 253.11C154.239 252.34 153.819 251.41 153.819 250.33C153.819 249.25 154.239 248.33 155.089 247.56C155.929 246.8 156.939 246.43 158.129 246.43C158.649 246.43 159.099 246.46 159.479 246.51C159.849 246.58 160.139 246.67 160.339 246.78L159.799 248.77C159.659 248.66 159.439 248.58 159.159 248.53C158.869 248.48 158.519 248.45 158.109 248.45C157.519 248.45 157.019 248.64 156.599 249.01C156.189 249.37 155.979 249.81 155.979 250.33C155.979 250.85 156.189 251.29 156.599 251.65C157.009 252.03 157.519 252.22 158.109 252.22C158.649 252.22 159.149 252.09 159.619 251.84C160.069 251.59 160.419 251.25 160.669 250.82V245.19H152.809H152.789ZM147.989 240.54C147.989 239.69 148.309 238.97 148.959 238.35C149.609 237.76 150.389 237.47 151.299 237.47C152.039 237.47 152.649 237.63 153.129 237.95L152.749 239.43C152.299 239.27 151.819 239.19 151.299 239.19C150.889 239.19 150.539 239.33 150.249 239.62C149.959 239.91 149.819 240.25 149.819 240.64C149.819 241.05 149.939 241.48 150.169 241.91C150.399 242.34 150.729 242.74 151.169 243.1H149.199C148.819 242.77 148.529 242.39 148.309 241.94C148.099 241.49 147.989 241.03 147.989 240.54ZM141.579 260.14L142.519 258.76C143.289 259.41 144.229 259.91 145.349 260.27C146.459 260.61 147.669 260.78 148.959 260.78C149.609 260.78 150.159 260.63 150.629 260.32C151.099 260 151.329 259.62 151.329 259.19C151.329 258.89 151.189 258.62 150.899 258.41C150.609 258.2 150.269 258.09 149.879 258.09C149.609 258.09 149.339 258.15 149.069 258.28C148.819 258.41 148.589 258.59 148.399 258.82L147.189 257.47C147.659 257.07 148.119 256.78 148.589 256.58C149.039 256.36 149.459 256.26 149.859 256.26C150.769 256.26 151.559 256.54 152.199 257.12C152.849 257.69 153.169 258.39 153.169 259.2C153.169 260.15 152.759 260.96 151.929 261.63C151.119 262.29 150.139 262.62 148.969 262.62C147.529 262.62 146.189 262.41 144.929 261.97C143.649 261.56 142.539 260.95 141.589 260.14H141.579ZM142.069 256.4L149.719 250.34V252.5L143.199 257.75L142.069 256.41V256.4ZM139.729 245.27C139.729 244.41 140.029 243.67 140.649 243.06C141.269 242.45 142.019 242.15 142.879 242.15C143.739 242.15 144.419 242.39 145.009 242.9C145.599 243.4 145.899 244.01 145.899 244.73C145.899 245.32 145.649 245.84 145.139 246.26C144.619 246.68 143.999 246.88 143.289 246.88L142.749 245.4C143.019 245.4 143.249 245.34 143.449 245.21C143.649 245.06 143.749 244.9 143.749 244.72C143.709 244.56 143.619 244.42 143.449 244.31C143.289 244.2 143.099 244.15 142.879 244.15C142.609 244.15 142.379 244.26 142.179 244.47C141.979 244.69 141.879 244.95 141.879 245.25C141.879 245.77 142.029 246.27 142.339 246.76C142.649 247.25 143.069 247.64 143.609 247.95C144.249 247.66 144.849 247.52 145.389 247.52L145.709 249.41C145.009 249.41 144.409 249.58 143.909 249.92C143.399 250.24 143.149 250.64 143.149 251.13C143.149 251.51 143.329 251.83 143.689 252.1C144.029 252.37 144.449 252.5 144.949 252.5C145.709 252.5 146.399 252.31 147.049 251.93C147.709 251.54 148.239 251.01 148.609 250.34V245.17H146.449V243.21H152.909V245.17H150.759V256.67H148.609V253.03C148.209 253.5 147.699 253.87 147.069 254.14C146.419 254.39 145.719 254.51 144.969 254.51C143.879 254.51 142.929 254.18 142.139 253.52C141.369 252.86 140.979 252.06 140.979 251.12C140.979 250.65 141.069 250.22 141.249 249.83C141.429 249.43 141.679 249.13 141.999 248.91C141.299 248.5 140.749 247.97 140.329 247.32C139.919 246.66 139.709 245.97 139.709 245.24L139.729 245.27ZM125.779 245.19V243.23H139.489V245.19H137.329V256.69H135.179V249.1H130.279C129.939 249.1 129.639 249.21 129.389 249.43C129.159 249.64 129.039 249.9 129.039 250.21C129.039 251.09 129.339 251.98 129.959 252.9C130.569 253.81 131.409 254.63 132.489 255.35L131.249 256.83C129.879 255.85 128.819 254.76 128.039 253.57C127.269 252.4 126.889 251.28 126.889 250.21C126.889 249.34 127.219 248.61 127.879 248C128.539 247.39 129.339 247.08 130.279 247.08H135.179V245.2H125.779V245.19ZM122.119 252.41C121.729 252.41 121.129 251.91 120.339 250.91C119.569 249.9 119.179 249.14 119.179 248.62C119.179 248.4 119.239 248.21 119.339 248.05C119.469 247.89 119.609 247.81 119.769 247.81H127.119V249.82H123.329C123.199 249.82 123.089 249.88 122.979 249.98C122.889 250.07 122.839 250.19 122.839 250.33V251.78C122.839 251.96 122.769 252.1 122.629 252.21C122.489 252.33 122.309 252.39 122.119 252.39V252.41ZM126.309 245.19H118.449V243.23H126.309V245.19ZM112.529 245.19V243.23H114.689C114.529 243.03 114.399 242.8 114.309 242.53C114.219 242.26 114.179 241.97 114.179 241.64C114.179 240.44 114.789 239.41 116.009 238.57C117.229 237.73 118.699 237.3 120.419 237.3C122.679 237.3 124.999 237.79 127.369 238.76C129.739 239.75 132.019 241.16 134.209 242.99H131.379C127.149 240.55 123.519 239.32 120.499 239.32C119.349 239.32 118.359 239.55 117.539 240.02C116.729 240.5 116.329 241.08 116.329 241.74C116.329 241.99 116.399 242.25 116.549 242.52C116.689 242.77 116.889 243 117.139 243.22H118.999V245.18H116.839V256.68H114.689V245.18H112.529V245.19ZM106.609 245.19V243.23H113.069V245.19H110.909V256.69H108.759V245.19H106.609ZM102.829 256.69V245.19H100.669V243.23H107.139V245.19H104.989V256.69H102.829ZM96.8787 247.48C97.1687 247.48 97.4388 247.43 97.6888 247.35C97.9588 247.24 98.1787 247.1 98.3587 246.92C98.3587 246.4 98.1987 245.95 97.8787 245.58C97.5587 245.2 97.1587 245.01 96.6987 245.01C96.3387 245.01 96.0188 245.14 95.7588 245.39C95.5088 245.66 95.3787 245.97 95.3787 246.33C95.3787 246.65 95.5187 246.92 95.8087 247.14C96.1187 247.37 96.4787 247.49 96.8887 247.49L96.8787 247.48ZM92.4688 251.82L93.9487 250.23L95.0187 251.2C95.8787 251.2 96.6288 250.99 97.2588 250.58C97.8888 250.17 98.2588 249.65 98.3688 249.01C97.9588 249.33 97.4688 249.5 96.9088 249.5C95.8888 249.5 95.0188 249.19 94.2988 248.56C93.5788 247.95 93.2188 247.2 93.2188 246.32C93.2188 245.44 93.5587 244.61 94.2487 243.95C94.9287 243.31 95.7487 242.98 96.6987 242.98C97.8487 242.98 98.7688 243.41 99.4688 244.27C100.169 245.11 100.519 246.24 100.519 247.66C100.519 248.95 100.139 250.08 99.3887 251.05C98.6587 252.02 97.7087 252.6 96.5687 252.8L99.7988 255.6L98.3688 257.08L92.4688 251.81V251.82ZM83.2887 246.78C83.5787 246.67 83.7987 246.52 83.9587 246.32C84.1387 246.12 84.2288 245.91 84.2288 245.68C84.2288 245.41 84.1287 245.19 83.9287 245C83.7487 244.8 83.5288 244.71 83.2588 244.71C83.0088 244.71 82.7887 244.81 82.6087 245C82.4287 245.18 82.3387 245.41 82.3387 245.68C82.3387 245.9 82.4287 246.1 82.6087 246.3C82.7687 246.5 82.9987 246.66 83.2787 246.79L83.2887 246.78ZM78.8387 249.34L81.6687 247.81C81.2187 247.59 80.8587 247.29 80.5887 246.89C80.3187 246.48 80.1888 246.05 80.1888 245.6C80.1888 244.79 80.4888 244.11 81.0788 243.55C81.6888 242.98 82.4188 242.69 83.2588 242.69C84.0988 242.69 84.8587 242.99 85.4688 243.58C86.0788 244.17 86.3787 244.88 86.3787 245.71C86.3787 246.01 86.2587 246.35 86.0287 246.71C85.8087 247.07 85.4987 247.42 85.0887 247.76L87.8887 248.86V245.2H87.1687V243.24H92.1987V245.2H90.0488V256.7H87.8887V254.87C87.4587 255.22 86.8988 255.5 86.2188 255.68C85.5387 255.88 84.7688 255.97 83.8988 255.97C82.8688 255.97 81.9988 255.69 81.2588 255.11C80.5388 254.55 80.1787 253.87 80.1787 253.06C80.1787 252.25 80.5388 251.57 81.2588 251.02C81.9988 250.44 82.8688 250.16 83.8988 250.16C84.5488 250.16 85.3088 250.32 86.1888 250.65L85.6987 252.67C85.0287 252.35 84.4187 252.18 83.8387 252.18C83.4287 252.18 83.0688 252.27 82.7588 252.45C82.4688 252.61 82.3288 252.82 82.3288 253.07C82.3288 253.32 82.4787 253.53 82.7887 253.7C83.1087 253.88 83.4887 253.97 83.9187 253.97C84.7987 253.97 85.5887 253.84 86.2887 253.59C86.9687 253.36 87.4987 253.01 87.8787 252.57V250.6L83.3587 248.87L79.8087 250.84L78.8387 249.36V249.34ZM66.5088 245.19V243.23H78.6787V245.19H76.5287V256.69H74.3787V253.27C74.1287 253.58 73.7788 253.82 73.3288 254C72.8788 254.16 72.3787 254.24 71.8187 254.24C70.6287 254.24 69.6287 253.86 68.8087 253.11C67.9687 252.34 67.5387 251.41 67.5387 250.33C67.5387 249.25 67.9587 248.33 68.8087 247.56C69.6487 246.8 70.6687 246.43 71.8487 246.43C72.3687 246.43 72.8187 246.46 73.1987 246.51C73.5787 246.58 73.8687 246.67 74.0587 246.78L73.5187 248.77C73.3787 248.66 73.1588 248.58 72.8688 248.53C72.5788 248.48 72.2287 248.45 71.8187 248.45C71.2287 248.45 70.7187 248.64 70.3087 249.01C69.8987 249.37 69.6888 249.81 69.6888 250.33C69.6888 250.85 69.8987 251.29 70.3087 251.65C70.7187 252.03 71.2287 252.22 71.8187 252.22C72.3587 252.22 72.8588 252.09 73.3288 251.84C73.7788 251.59 74.1287 251.25 74.3787 250.82V245.19H66.5187H66.5088ZM60.5788 245.19V243.23H62.4888C62.3088 242.75 62.2188 242.25 62.2188 241.75C62.2188 240.58 62.7187 239.59 63.6987 238.79C64.6887 237.97 65.8788 237.55 67.2588 237.55C69.2188 237.55 71.0087 238.05 72.6387 239.06C74.2887 240.04 75.5287 241.39 76.3587 243.1H74.1488C73.5188 242 72.5887 241.14 71.3487 240.51C70.1287 239.88 68.7688 239.57 67.2588 239.57C66.4688 239.57 65.7887 239.78 65.2087 240.22C64.6487 240.63 64.3688 241.14 64.3688 241.75C64.3688 242.2 64.4687 242.69 64.6687 243.23H67.0387V245.19H64.8887V256.69H62.7287V245.19H60.5788ZM51.4287 256.69H49.2787V243.23H51.4287V256.69ZM43.6187 256.69H41.4688V243.23H43.6187V256.69Z" fill="#6D6E70"/>
<path d="M1.85938 179.97C1.85938 178.27 2.70937 177.42 4.39937 177.42H9.14937C10.5594 177.42 11.5294 178.04 12.1494 179.34L23.0094 202.8L33.9194 179.34C34.5394 178.04 35.4994 177.42 36.9194 177.42H41.6694C43.3694 177.42 44.2194 178.27 44.2194 179.97V216.72C44.2194 218.42 43.3694 219.26 41.6694 219.26H36.0694C34.3694 219.26 33.5294 218.41 33.5294 216.72V202.13L27.1394 217.28C26.5694 218.58 25.5594 219.26 24.1394 219.26H21.8794C20.4694 219.26 19.4494 218.58 18.8794 217.28L12.5494 202.18V216.71C12.5494 218.41 11.6994 219.25 10.0094 219.25H4.40937C2.70937 219.25 1.86937 218.4 1.86937 216.71V179.96L1.85938 179.97Z" fill="url(#paint0_linear_1439_8806)"/>
<path d="M54.6298 177.43H60.2298C61.6298 177.43 62.7698 178.57 62.7698 179.97V216.72C62.7698 218.12 61.6298 219.26 60.2298 219.26H54.6298C53.2298 219.26 52.0898 218.12 52.0898 216.72V179.97C52.0898 178.57 53.2298 177.42 54.6398 177.42L54.6298 177.43Z" fill="url(#paint1_linear_1439_8806)"/>
<path d="M83.8586 219.27C82.1586 219.27 81.3086 218.42 81.3086 216.73V188.12H72.5986C70.8986 188.12 70.0586 187.27 70.0586 185.57V179.97C70.0586 178.27 70.9086 177.42 72.5986 177.42H100.699C102.399 177.42 103.239 178.27 103.239 179.97V185.57C103.239 187.27 102.389 188.12 100.699 188.12H91.9886V216.73C91.9886 218.43 91.1386 219.27 89.4486 219.27H83.8486H83.8586Z" fill="url(#paint2_linear_1439_8806)"/>
<path d="M110.392 194.56H123.362C124.772 194.56 125.912 195.7 125.912 197.11V199.93C125.912 201.33 124.772 202.47 123.372 202.47H110.392C108.992 202.47 107.852 201.33 107.852 199.93V197.1C107.852 195.7 108.992 194.56 110.392 194.56Z" fill="url(#paint3_linear_1439_8806)"/>
<path d="M132.019 180.14C131.619 178.39 132.469 177.37 134.279 177.37H140.049C141.579 177.37 142.539 178.1 142.879 179.63L146.779 198.01L151.809 179.52C152.199 178.11 153.109 177.37 154.639 177.37H160.799C162.329 177.37 163.229 178.1 163.629 179.52L168.659 197.9L172.559 179.64C172.899 178.11 173.859 177.38 175.389 177.38H181.099C182.909 177.38 183.759 178.4 183.359 180.15L175.329 217.02C174.989 218.55 174.029 219.28 172.499 219.28H165.939C164.409 219.28 163.509 218.55 163.109 217.13L157.739 197.45L152.369 217.13C151.919 218.54 150.959 219.28 149.489 219.28H142.929C141.399 219.28 140.439 218.55 140.099 217.02L132.019 180.15V180.14Z" fill="url(#paint4_linear_1439_8806)"/>
<path d="M213.061 191.17C213.061 189.19 211.871 187.72 209.611 187.72H201.131V194.73H209.221C211.201 194.73 213.061 193.37 213.061 191.17ZM223.361 191.17C223.361 195.3 221.721 199.54 218.611 201.97C216.121 203.95 212.841 205.02 209.231 205.02H201.141V216.72C201.141 218.42 200.291 219.26 198.601 219.26H193.001C191.301 219.26 190.461 218.41 190.461 216.72V179.97C190.461 178.27 191.311 177.42 193.001 177.42H210.191C213.811 177.42 216.811 178.5 219.241 180.59C220.151 181.44 221.221 182.79 222.011 184.55C222.801 186.36 223.371 188.62 223.371 191.16L223.361 191.17Z" fill="url(#paint5_linear_1439_8806)"/>
<path d="M268.651 199.65C268.591 204.85 266.671 210.05 263.341 213.9C259.951 217.74 255.141 220.29 249.261 220.29C243.381 220.29 238.801 217.97 235.411 214.18C232.021 210.39 230.041 205.25 229.871 199.65V179.97C229.871 178.27 230.721 177.42 232.411 177.42H238.011C239.711 177.42 240.551 178.27 240.551 179.97V199.65C240.551 202.59 241.511 205.13 243.091 206.94C244.671 208.81 246.821 209.88 249.251 209.88C251.681 209.88 253.771 208.81 255.361 206.94C256.941 205.13 257.901 202.59 257.901 199.65V179.97C257.901 178.27 258.751 177.42 260.441 177.42H266.091C267.791 177.42 268.631 178.27 268.631 179.97V199.65H268.651Z" fill="url(#paint6_linear_1439_8806)"/>
<path d="M131.358 37.79V27.35C131.358 26.79 131.818 26.33 132.378 26.33H138.158C138.718 26.33 139.178 26.79 139.178 27.35V37.54L142.478 37.3C143.108 37.43 143.708 38.46 143.708 37.81V26.57C143.708 26.41 143.748 26.25 143.818 26.1L146.078 21.72C146.428 21.04 145.938 20.23 145.168 20.23H125.348C124.588 20.23 124.088 21.04 124.438 21.72L126.698 26.1C126.768 26.24 126.808 26.4 126.808 26.57V37.55" fill="#11468F"/>
<path d="M141.469 14.1H137.889C137.669 14.1 137.479 13.93 137.449 13.71L135.729 0.39C135.699 0.17 135.509 0 135.289 0C135.069 0 134.879 0.17 134.849 0.39L133.129 13.71C133.099 13.93 132.909 14.1 132.689 14.1H129.109C128.929 14.1 128.769 14.21 128.699 14.37L127.569 17C127.439 17.29 127.659 17.62 127.979 17.62H142.629C142.949 17.62 143.169 17.29 143.039 17L141.909 14.37C141.839 14.21 141.679 14.1 141.499 14.1H141.469Z" fill="#11468F"/>
<path d="M270.57 132C270.57 130.31 269.2 128.95 267.52 128.95H238.07C232.78 81.05 194.65 42.9 146.76 37.57C146.76 37.57 140.56 36.99 134.95 36.99C129.34 36.99 123.79 37.56 123.79 37.56C75.87 42.86 37.71 81.03 32.41 128.95H3.05C1.36 128.95 0 130.32 0 132V134.32H270.57V132ZM61.5 129.86H37.43L37.55 128.84C41.65 94.24 64.17 64.22 96.34 50.51L102.13 48.04L97.28 52.05C77.44 68.44 64.09 97.22 61.57 129.02L61.5 129.86ZM101.72 129.86H67.14L67.22 128.87C68.72 110.74 73.77 93.61 81.81 79.32C89.76 65.2 103.23 47.3 122.27 42.16L124.79 41.48L123.24 43.58C119.18 49.1 113.49 59.37 110.59 68.88C105.59 85.3 102.53 106.08 101.75 128.97L101.72 129.85V129.86ZM162.19 129.86H107.35L107.38 128.92C109.02 81.4 121.52 42.74 135.24 42.74C148.96 42.74 161.46 81.4 163.1 128.92L163.13 129.86H162.19ZM202.6 129.86H169.01L168.98 128.98C168.2 106.09 165.14 85.31 160.14 68.89C157.24 59.38 151.55 49.11 147.49 43.59L145.94 41.49L148.46 42.17C167.5 47.31 180.97 65.21 188.92 79.33C196.97 93.62 202.01 110.75 203.51 128.88L203.59 129.87H202.6V129.86ZM232.03 129.86H208.98L208.91 129.02C206.39 97.22 193.03 68.45 173.19 52.05L168.34 48.04L174.13 50.51C206.3 64.22 228.83 94.24 232.93 128.84L233.05 129.86H232.02H232.03Z" fill="#11468F"/>
<path d="M270.57 139.13V135.77H0V139.23C0 139.23 0 139.28 0 139.3V154.17C0 154.17 0 154.22 0 154.24V159.11C0 159.97 0.7 160.68 1.57 160.68H269C269.86 160.68 270.56 159.98 270.56 159.11V154.34C270.55 154.29 270.54 154.23 270.54 154.17V139.3C270.54 139.24 270.54 139.18 270.56 139.13H270.57ZM8.79 154.98H4.55V140.55C4.55 139.42 5.47 138.5 6.6 138.5H6.74C7.87 138.5 8.79 139.42 8.79 140.55V154.98ZM20.39 154.98H14.51V141.35C14.51 139.78 15.79 138.5 17.36 138.5H17.54C19.11 138.5 20.39 139.78 20.39 141.35V154.98ZM33.82 154.98H26.3V142.15C26.3 140.14 27.94 138.5 29.95 138.5H30.17C32.18 138.5 33.82 140.14 33.82 142.15V154.98ZM55.17 154.98H46.01V142.95C46.01 140.5 48 138.5 50.46 138.5H50.72C53.17 138.5 55.17 140.49 55.17 142.95V154.98ZM73.06 154.98H62.03V143.86C62.03 140.9 64.43 138.5 67.39 138.5H67.7C70.66 138.5 73.06 140.9 73.06 143.86V154.98ZM92.41 154.98H79.92V144.57C79.92 141.22 82.65 138.49 86 138.49H86.34C89.69 138.49 92.41 141.22 92.41 144.57V154.98ZM120.81 154.98H105.58V145.63C105.58 141.7 108.78 138.5 112.71 138.5H113.67C117.6 138.5 120.8 141.7 120.8 145.63V154.98H120.81ZM142.57 154.98H127.9V145.5C127.9 141.64 131.04 138.5 134.9 138.5H135.57C139.43 138.5 142.57 141.64 142.57 145.5V154.98ZM164.89 154.98H149.66V145.63C149.66 141.7 152.86 138.5 156.79 138.5H157.75C161.68 138.5 164.88 141.7 164.88 145.63V154.98H164.89ZM190.58 154.98H178.09V144.57C178.09 141.22 180.82 138.49 184.16 138.49H184.5C187.85 138.49 190.58 141.22 190.58 144.57V154.98ZM208.44 154.98H197.41V143.86C197.41 140.9 199.81 138.5 202.77 138.5H203.08C206.04 138.5 208.44 140.9 208.44 143.86V154.98ZM224.46 154.98H215.3V142.95C215.3 140.5 217.29 138.5 219.75 138.5H220.01C222.46 138.5 224.46 140.49 224.46 142.95V154.98ZM244.16 154.98H236.64V142.15C236.64 140.14 238.28 138.5 240.29 138.5H240.51C242.52 138.5 244.16 140.14 244.16 142.15V154.98ZM255.94 154.98H250.06V141.35C250.06 139.78 251.34 138.5 252.91 138.5H253.09C254.66 138.5 255.94 139.78 255.94 141.35V154.98ZM265.95 154.98H261.71V140.55C261.71 139.42 262.63 138.5 263.76 138.5H263.9C265.03 138.5 265.95 139.42 265.95 140.55V154.98Z" fill="#11468F"/>
<path d="M195.74 0.87C196.6 0.29 197.79 0 199.29 0C200.41 0 201.28 0.22 201.88 0.65C202.49 1.09 202.92 1.7 203.18 2.49C203.21 2.6 203.23 2.7 203.23 2.78C203.23 2.9 203.19 3 203.11 3.07C203.03 3.15 202.9 3.22 202.71 3.3L201.45 3.81C201.31 3.87 201.18 3.91 201.08 3.91C200.98 3.91 200.9 3.88 200.85 3.81C200.79 3.74 200.74 3.63 200.69 3.48C200.56 3.12 200.36 2.85 200.09 2.67C199.82 2.49 199.44 2.4 198.95 2.4C198.28 2.4 197.77 2.49 197.42 2.67C197.08 2.85 196.87 3.14 196.81 3.53C196.81 3.56 196.79 3.61 196.79 3.68C196.79 4.02 196.98 4.26 197.37 4.41C197.76 4.56 198.32 4.67 199.06 4.74C200.09 4.87 200.95 5.17 201.64 5.65C202.33 6.13 202.68 6.87 202.68 7.87C202.68 8.09 202.65 8.35 202.6 8.65C202.19 10.92 200.42 12.06 197.28 12.06C196.03 12.06 195.05 11.83 194.34 11.38C193.63 10.93 193.2 10.27 193.04 9.41C193.03 9.36 193.02 9.28 193.02 9.2C193.02 9.05 193.07 8.92 193.16 8.83C193.25 8.73 193.4 8.64 193.61 8.57L194.86 8.15C195.02 8.1 195.15 8.07 195.24 8.07C195.35 8.07 195.43 8.11 195.49 8.18C195.55 8.25 195.6 8.37 195.65 8.55C195.75 8.91 195.96 9.19 196.29 9.38C196.62 9.58 197.05 9.67 197.57 9.67C198.28 9.67 198.83 9.57 199.23 9.37C199.63 9.17 199.86 8.84 199.94 8.38C199.95 8.35 199.96 8.29 199.96 8.22C199.96 7.9 199.79 7.67 199.44 7.53C199.09 7.38 198.6 7.28 197.96 7.21C196.83 7.07 195.9 6.78 195.18 6.35C194.46 5.92 194.09 5.18 194.09 4.14C194.09 3.87 194.11 3.61 194.16 3.36C194.36 2.28 194.89 1.45 195.75 0.87H195.74Z" fill="#231F20"/>
<path d="M203.581 11.74C203.501 11.69 203.461 11.59 203.461 11.45C203.461 11.35 203.461 11.27 203.481 11.22L204.751 3.94001C204.791 3.71001 204.871 3.55001 204.971 3.47001C205.071 3.38001 205.241 3.34001 205.471 3.34001H206.741C206.931 3.34001 207.051 3.37001 207.121 3.42001C207.191 3.48001 207.231 3.57001 207.231 3.71001C207.231 3.81001 207.231 3.88001 207.211 3.94001L205.941 11.22C205.901 11.45 205.821 11.61 205.721 11.69C205.621 11.78 205.461 11.82 205.241 11.82H203.971C203.781 11.82 203.661 11.79 203.581 11.74ZM205.321 2.33001C205.171 2.22001 205.091 2.04001 205.091 1.78001C205.091 1.65001 205.111 1.50001 205.141 1.32001L205.161 1.16001C205.251 0.72001 205.391 0.41001 205.581 0.25001C205.781 0.0900098 206.091 0.0100098 206.531 0.0100098H206.871C207.231 0.0100098 207.491 0.0600098 207.641 0.17001C207.791 0.27001 207.871 0.45001 207.871 0.72001C207.871 0.84001 207.851 0.99001 207.821 1.18001L207.801 1.34001C207.711 1.79001 207.571 2.09001 207.381 2.26001C207.181 2.43001 206.871 2.51001 206.431 2.51001H206.091C205.731 2.51001 205.481 2.46001 205.321 2.35001V2.33001Z" fill="#231F20"/>
<path d="M213.108 3.10009C214.098 3.10009 214.838 3.33009 215.338 3.79009C215.838 4.25009 216.088 4.90009 216.088 5.72009C216.088 5.97009 216.058 6.27009 216.008 6.62009L215.208 11.2201C215.168 11.4501 215.088 11.6101 214.988 11.6901C214.888 11.7801 214.718 11.8201 214.488 11.8201H213.218C213.028 11.8201 212.908 11.7901 212.838 11.7401C212.768 11.6901 212.728 11.5901 212.728 11.4501C212.728 11.3501 212.728 11.2701 212.748 11.2201L213.558 6.55009C213.578 6.40009 213.588 6.29009 213.588 6.22009C213.588 5.62009 213.188 5.32009 212.378 5.32009C211.958 5.32009 211.568 5.37009 211.218 5.47009C211.188 5.47009 211.158 5.49009 211.138 5.54009L210.138 11.2201C210.098 11.4501 210.018 11.6101 209.918 11.6901C209.818 11.7801 209.658 11.8201 209.438 11.8201H208.168C207.978 11.8201 207.848 11.7901 207.778 11.7401C207.708 11.6901 207.668 11.5901 207.668 11.4501C207.668 11.3501 207.668 11.2701 207.688 11.2201L208.848 4.63009C208.898 4.36009 208.978 4.16009 209.088 4.03009C209.188 3.91009 209.378 3.79009 209.668 3.68009C210.698 3.29009 211.848 3.09009 213.108 3.09009V3.10009Z" fill="#231F20"/>
<path d="M218.83 3.9401C219.54 3.3801 220.54 3.1001 221.85 3.1001C222.78 3.1001 223.52 3.3001 224.04 3.7001C224.57 4.1001 224.89 4.6201 225.01 5.2701C225.01 5.3201 225.03 5.4001 225.03 5.4801C225.03 5.6401 224.99 5.7701 224.91 5.8701C224.83 5.9701 224.69 6.0501 224.49 6.1101L223.51 6.4401C223.35 6.4901 223.23 6.5201 223.15 6.5201C223.03 6.5201 222.94 6.4801 222.87 6.4001C222.8 6.3201 222.75 6.2001 222.72 6.0301C222.59 5.4901 222.17 5.2101 221.46 5.2101C221.03 5.2101 220.68 5.3201 220.42 5.5401C220.16 5.7601 220 6.0601 219.93 6.4501L219.52 8.7201C219.5 8.8701 219.49 8.9801 219.49 9.0401C219.49 9.6401 219.86 9.9401 220.61 9.9401C221.26 9.9401 221.76 9.6601 222.11 9.1101C222.2 8.9501 222.29 8.8301 222.38 8.7601C222.47 8.6901 222.58 8.6501 222.7 8.6501C222.81 8.6501 222.92 8.6701 223.04 8.7201L224.05 9.0401C224.32 9.1401 224.46 9.2801 224.46 9.4601C224.46 9.5801 224.4 9.7301 224.3 9.9001C223.89 10.6101 223.35 11.1401 222.7 11.5001C222.05 11.8601 221.23 12.0501 220.25 12.0501C219.17 12.0501 218.37 11.8101 217.83 11.3201C217.29 10.8401 217.02 10.1701 217.02 9.3101C217.02 9.0701 217.05 8.7901 217.1 8.4601L217.47 6.3901C217.66 5.3001 218.1 4.4801 218.81 3.9201L218.83 3.9401Z" fill="#231F20"/>
<path d="M232.979 3.78011C233.579 4.23011 233.879 4.86011 233.879 5.65011C233.879 5.81011 233.859 5.99011 233.829 6.17011C233.689 7.05011 233.229 7.67011 232.439 8.03011C231.659 8.39011 230.619 8.57011 229.329 8.57011C229.059 8.57011 228.639 8.56011 228.069 8.54011L228.019 8.77011C227.999 8.92011 227.989 9.03011 227.989 9.10011C227.989 9.74011 228.409 10.0601 229.249 10.0601C229.999 10.0601 230.579 9.84011 230.979 9.41011C231.099 9.29011 231.199 9.20011 231.289 9.14011C231.379 9.08011 231.459 9.05011 231.549 9.05011C231.659 9.05011 231.799 9.11011 231.969 9.21011L232.689 9.63011C232.899 9.76011 232.999 9.91011 232.999 10.0701C232.999 10.2301 232.919 10.4101 232.769 10.5901C231.999 11.5801 230.699 12.0801 228.889 12.0801C227.759 12.0801 226.919 11.8101 226.379 11.2801C225.839 10.7501 225.559 10.0401 225.559 9.16011C225.559 8.91011 225.589 8.61011 225.639 8.26011L225.979 6.45011C226.179 5.37011 226.659 4.55011 227.439 3.97011C228.219 3.39011 229.239 3.11011 230.499 3.11011C231.549 3.11011 232.369 3.34011 232.969 3.79011L232.979 3.78011ZM231.199 5.28011C230.989 5.13011 230.659 5.06011 230.199 5.06011C229.739 5.06011 229.349 5.18011 229.039 5.41011C228.739 5.64011 228.539 5.96011 228.449 6.37011L228.379 6.78011C228.559 6.80011 228.819 6.81011 229.159 6.81011C229.839 6.81011 230.379 6.75011 230.759 6.62011C231.139 6.49011 231.359 6.26011 231.429 5.93011C231.469 5.65011 231.389 5.43011 231.189 5.29011L231.199 5.28011Z" fill="#231F20"/>
<path d="M244.589 0.33999C244.679 0.40999 244.729 0.50999 244.729 0.64999C244.729 0.68999 244.719 0.77999 244.699 0.90999L242.889 11.15C242.849 11.4 242.769 11.57 242.649 11.67C242.539 11.77 242.349 11.82 242.099 11.82H240.779C240.569 11.82 240.429 11.79 240.349 11.72C240.269 11.65 240.229 11.55 240.229 11.39C240.229 11.29 240.229 11.21 240.249 11.15L241.599 3.49999L239.849 4.37999C239.629 4.49999 239.459 4.55999 239.329 4.55999C239.219 4.55999 239.129 4.51999 239.069 4.44999C238.999 4.37999 238.939 4.26999 238.889 4.12999L238.499 3.09999C238.469 2.99999 238.449 2.90999 238.449 2.81999C238.449 2.68999 238.489 2.57999 238.569 2.48999C238.649 2.39999 238.789 2.29999 238.969 2.20999L242.229 0.49999C242.429 0.38999 242.589 0.31999 242.709 0.28999C242.839 0.25999 242.999 0.23999 243.209 0.23999H244.139C244.349 0.23999 244.499 0.26999 244.589 0.33999Z" fill="#231F20"/>
<path d="M249.668 7.49C248.388 7.49 247.438 7.25 246.808 6.77C246.188 6.29 245.878 5.58 245.878 4.62C245.878 4.37 245.908 4.05 245.958 3.67C246.178 2.45 246.728 1.54 247.618 0.92C248.508 0.3 249.678 0 251.128 0C252.388 0 253.348 0.31 254.008 0.92C254.668 1.53 254.998 2.38 254.998 3.46C254.998 3.78 254.968 4.14 254.898 4.52L254.308 7.93C254.058 9.28 253.488 10.31 252.588 11.01C251.688 11.72 250.508 12.07 249.028 12.07C246.768 12.07 245.458 11.2 245.108 9.46C245.088 9.35 245.078 9.27 245.078 9.23C245.078 9.08 245.128 8.96 245.218 8.86C245.308 8.76 245.458 8.68 245.668 8.61L246.908 8.19C247.068 8.14 247.188 8.11 247.268 8.11C247.378 8.11 247.458 8.15 247.518 8.23C247.578 8.31 247.638 8.43 247.688 8.6C247.788 8.96 247.968 9.23 248.248 9.4C248.528 9.58 248.918 9.66 249.418 9.66C250.668 9.66 251.428 9.02 251.688 7.75L251.788 7.29C251.198 7.42 250.498 7.49 249.668 7.49ZM252.368 3.74C252.368 2.85 251.828 2.4 250.738 2.4C249.468 2.4 248.748 2.87 248.588 3.8C248.568 3.97 248.558 4.09 248.558 4.16C248.558 4.51 248.688 4.77 248.958 4.94C249.228 5.11 249.648 5.2 250.238 5.2C251.068 5.2 251.718 5.11 252.208 4.94L252.318 4.21C252.348 4.03 252.368 3.87 252.368 3.74Z" fill="#231F20"/>
<path d="M258.698 0.84C259.528 0.28 260.608 0 261.918 0C263.128 0 264.038 0.24 264.668 0.71C265.298 1.18 265.608 1.84 265.608 2.68C265.608 2.92 265.588 3.14 265.548 3.35C265.448 3.93 265.248 4.39 264.938 4.75C264.628 5.11 264.258 5.43 263.818 5.73C264.648 6.21 265.058 6.94 265.058 7.93C265.058 8.19 265.038 8.44 264.988 8.66C264.598 10.93 262.868 12.07 259.798 12.07C258.408 12.07 257.378 11.84 256.728 11.39C256.068 10.93 255.738 10.29 255.738 9.46C255.738 9.32 255.758 9.1 255.808 8.79C255.928 8.14 256.198 7.59 256.608 7.14C257.018 6.69 257.488 6.33 257.998 6.05C257.398 5.58 257.098 4.91 257.098 4.04C257.098 3.83 257.128 3.58 257.178 3.27C257.368 2.2 257.868 1.39 258.708 0.83L258.698 0.84ZM262.278 8.33C262.278 8.05 262.178 7.82 261.998 7.65C261.808 7.48 261.578 7.36 261.308 7.28C261.038 7.2 260.588 7.08 259.968 6.93C259.128 7.29 258.648 7.83 258.518 8.56C258.508 8.61 258.498 8.7 258.498 8.8C258.498 9.13 258.638 9.38 258.908 9.55C259.178 9.73 259.608 9.81 260.208 9.81C260.868 9.81 261.358 9.7 261.688 9.49C262.008 9.28 262.198 8.96 262.268 8.55C262.268 8.49 262.288 8.42 262.288 8.32L262.278 8.33ZM262.968 3.2C262.968 2.9 262.848 2.66 262.598 2.5C262.348 2.34 261.998 2.26 261.548 2.26C260.528 2.26 259.938 2.66 259.788 3.45C259.778 3.51 259.768 3.58 259.768 3.68C259.768 3.97 259.878 4.21 260.088 4.39C260.298 4.57 260.618 4.71 261.028 4.82L261.678 5C261.988 4.85 262.268 4.64 262.508 4.39C262.748 4.14 262.898 3.82 262.948 3.45C262.958 3.4 262.968 3.31 262.968 3.21V3.2Z" fill="#231F20"/>
<path d="M275.208 4.80002C274.938 5.18002 274.578 5.49002 274.118 5.76002C274.898 6.23002 275.288 6.93002 275.288 7.88002C275.288 8.09002 275.258 8.34002 275.208 8.63002C275.008 9.73002 274.508 10.58 273.698 11.17C272.888 11.77 271.768 12.07 270.348 12.07C267.928 12.07 266.548 11.16 266.188 9.33002C266.178 9.27002 266.168 9.20002 266.168 9.12002C266.168 8.96002 266.218 8.83002 266.308 8.73002C266.398 8.63002 266.548 8.55002 266.758 8.49002L268.048 8.05002C268.168 8.01002 268.278 7.99002 268.388 7.99002C268.498 7.99002 268.588 8.03002 268.648 8.10002C268.708 8.18002 268.758 8.30002 268.798 8.47002C268.898 8.89002 269.078 9.20002 269.348 9.39002C269.618 9.58002 270.048 9.68002 270.648 9.68002C271.728 9.68002 272.338 9.26002 272.488 8.41002C272.508 8.23002 272.518 8.12002 272.518 8.05002C272.518 7.44002 272.128 7.14002 271.348 7.14002H270.058C269.848 7.14002 269.708 7.11002 269.618 7.04002C269.528 6.97002 269.488 6.86002 269.488 6.71002C269.488 6.61002 269.488 6.53002 269.508 6.48002L269.668 5.47002C269.708 5.22002 269.788 5.05002 269.898 4.95002C270.018 4.85002 270.198 4.80002 270.448 4.80002H271.408C271.888 4.80002 272.288 4.68002 272.608 4.43002C272.928 4.18002 273.088 3.81002 273.088 3.34002C273.088 2.72002 272.678 2.41002 271.848 2.41002C271.278 2.41002 270.848 2.50002 270.548 2.68002C270.248 2.86002 269.978 3.16002 269.738 3.59002C269.648 3.76002 269.558 3.89002 269.468 3.96002C269.378 4.04002 269.268 4.08002 269.148 4.08002C269.108 4.08002 268.998 4.06002 268.818 4.01002L267.678 3.57002C267.418 3.47002 267.288 3.33002 267.288 3.15002C267.288 3.03002 267.328 2.89002 267.418 2.73002C267.918 1.83002 268.558 1.15002 269.348 0.70002C270.138 0.25002 271.148 0.0200195 272.378 0.0200195C273.478 0.0200195 274.318 0.27002 274.918 0.77002C275.508 1.27002 275.808 1.94002 275.808 2.79002C275.808 3.04002 275.788 3.27002 275.738 3.48002C275.638 4.00002 275.458 4.45002 275.188 4.82002L275.208 4.80002Z" fill="#231F20"/>
<defs>
<linearGradient id="paint0_linear_1439_8806" x1="1.85938" y1="198.35" x2="44.2094" y2="198.35" gradientUnits="userSpaceOnUse">
<stop stop-color="#BE283C"/>
<stop offset="1" stop-color="#BE283C"/>
</linearGradient>
<linearGradient id="paint1_linear_1439_8806" x1="52.0798" y1="-5.58113e-05" x2="62.7698" y2="-5.58113e-05" gradientUnits="userSpaceOnUse">
<stop stop-color="#BE283C"/>
<stop offset="1" stop-color="#BE283C"/>
</linearGradient>
<linearGradient id="paint2_linear_1439_8806" x1="70.0686" y1="-9.87817e-05" x2="103.259" y2="-9.87817e-05" gradientUnits="userSpaceOnUse">
<stop stop-color="#BE283C"/>
<stop offset="1" stop-color="#BE283C"/>
</linearGradient>
<linearGradient id="paint3_linear_1439_8806" x1="107.852" y1="198.52" x2="125.912" y2="198.52" gradientUnits="userSpaceOnUse">
<stop stop-color="#BE283C"/>
<stop offset="1" stop-color="#BE283C"/>
</linearGradient>
<linearGradient id="paint4_linear_1439_8806" x1="131.929" y1="198.32" x2="183.459" y2="198.32" gradientUnits="userSpaceOnUse">
<stop stop-color="#BE283C"/>
<stop offset="1" stop-color="#BE283C"/>
</linearGradient>
<linearGradient id="paint5_linear_1439_8806" x1="190.451" y1="-6.32412e-05" x2="223.361" y2="-6.32412e-05" gradientUnits="userSpaceOnUse">
<stop stop-color="#BE283C"/>
<stop offset="1" stop-color="#BE283C"/>
</linearGradient>
<linearGradient id="paint6_linear_1439_8806" x1="229.871" y1="198.86" x2="268.651" y2="198.86" gradientUnits="userSpaceOnUse">
<stop stop-color="#BE283C"/>
<stop offset="1" stop-color="#BE283C"/>
</linearGradient>
</defs>
</svg>
