<?xml version="1.0" encoding="UTF-8"?>
<svg id="Layer_1" data-name="Layer 1" xmlns="http://www.w3.org/2000/svg" viewBox="0 0 200 200">
  <defs>
    <style>
      .cls-1 {
        fill: #fff;
      }
    </style>
  </defs>
  <circle cx="100" cy="100" r="94.85" transform="translate(-31.66 48.36) rotate(-23.58)"/>
  <path class="cls-1" d="M162.56,121.8c2.39-6.83,3.69-14.16,3.69-21.8s-1.3-14.96-3.69-21.79c-.06-.2-.13-.41-.21-.6-9.2-25.54-33.67-43.86-62.35-43.86s-53.15,18.31-62.35,43.86c-.08.19-.16.39-.21.6-2.39,6.83-3.69,14.16-3.69,21.79s1.3,14.97,3.69,21.8c.06.2.13.41.21.6,9.2,25.54,33.67,43.86,62.35,43.86s53.15-18.31,62.35-43.86c.08-.19.15-.39.21-.6h0ZM100,156.75c-2.52,0-6.59-4.57-9.99-14.77-1.64-4.92-2.95-10.58-3.91-16.74h27.8c-.96,6.16-2.27,11.81-3.91,16.74-3.4,10.2-7.47,14.77-9.99,14.77h0ZM84.95,115.75c-.46-5.06-.7-10.35-.7-15.75s.24-10.69.7-15.75h30.11c.46,5.06.7,10.34.7,15.75s-.24,10.69-.7,15.75h-30.11ZM43.25,100c0-5.46.78-10.75,2.23-15.75h29.95c-.44,5.17-.67,10.46-.67,15.75s.23,10.58.67,15.75h-29.95c-1.45-5-2.23-10.29-2.23-15.75h0ZM100,43.25c2.52,0,6.59,4.57,9.99,14.77,1.64,4.92,2.96,10.58,3.91,16.74h-27.8c.96-6.16,2.27-11.82,3.91-16.74,3.4-10.2,7.47-14.77,9.99-14.77h0ZM124.58,84.25h29.94c1.45,5,2.23,10.29,2.23,15.75s-.78,10.75-2.23,15.75h-29.94c.44-5.17.67-10.46.67-15.75s-.22-10.58-.67-15.75h0ZM150.81,74.75h-27.32c-1.69-11.65-4.59-22.1-8.65-29.53,15.76,4.27,28.82,15.18,35.98,29.53h0ZM85.16,45.22c-4.07,7.43-6.96,17.88-8.65,29.53h-27.32c7.16-14.35,20.22-25.26,35.98-29.53h0ZM49.19,125.25h27.32c1.69,11.65,4.59,22.1,8.65,29.53-15.76-4.28-28.82-15.18-35.98-29.53h0ZM114.84,154.78c4.07-7.43,6.96-17.88,8.65-29.53h27.32c-7.16,14.35-20.22,25.26-35.98,29.53h0ZM114.84,154.78"/>
</svg>